<svg xmlns="http://www.w3.org/2000/svg" viewBox="0 0 60 60"><path d="M23.7 35.4h2v19.4h-2zm10.6 0h2v19.4h-2zm16.8 15.7h-5.3c-.5 0-1-.4-1-1V35.4h2v13.8h4.3v1.9zm-36.9 0H8.9v-2h4.3V35.4h2v14.7c0 .6-.5 1-1 1z" fill="#c7e7eb"/><g fill="#4caf50"><circle cx="24.7" cy="56.7" r="3.3"/><circle cx="35.3" cy="56.7" r="3.3"/><circle cx="53.1" cy="50.1" r="3.3"/></g><g fill="#1f2835"><path d="M52.5 17.6C52.4 7.9 44.5 0 34.8 0h-.3l13.2 36.7h2.7c5.3 0 9.7-4.3 9.7-9.7-.1-4.6-3.3-8.4-7.6-9.4z"/><path d="M49.5 17.6C49.5 8 42.8.2 34.4 0c-6.5.1-12.2 3.8-15.2 9.2-.6-.3-1.3-.5-2-.6-.3 0-.6-.1-1-.1-3.8 0-7 2.9-7.5 6.6-5 1-8.8 5.4-8.8 10.7a10.93 10.93 0 0 0 10.9 10.9h36.7c4.6 0 8.4-4.3 8.4-9.7.1-4.6-2.6-8.4-6.4-9.4z"/></g><circle cx="6.9" cy="50.1" r="3.3" fill="#4caf50"/></svg>