<svg xmlns="http://www.w3.org/2000/svg" xmlns:xlink="http://www.w3.org/1999/xlink" viewBox="0 0 200 200"><g fill="#1f2835"><use xlink:href="#B"/><use xlink:href="#C"/><use xlink:href="#D"/></g><g opacity=".3"><use xlink:href="#B"/><use xlink:href="#C"/><use xlink:href="#D"/></g><path d="M179.7 61.2c0 3.2-4 6.9-6.9 6.9H27.2c-2.9 0-6.9-3.7-6.9-6.9V23.7c0-3.2 4-6.1 6.9-6.1h145.6c2.9 0 6.9 2.9 6.9 6.1v37.5zm0 53.9c0 3.2-4 6.1-6.9 6.1H27.2c-2.9 0-6.9-2.9-6.9-6.1V77.7c0-3.2 4-6.9 6.9-6.9h145.6c3.2 0 6.9 3.7 6.9 6.9v37.4zm0 54c0 3.2-4 5.3-6.9 5.3H27.2c-2.9 0-6.9-2.1-6.9-5.3v-37.5c0-3.2 4-5 6.9-5h145.6c3.2 0 6.9 1.9 6.9 5v37.5z" fill="#1f2835"/><path d="M20.3 23.7c0-3.2 4-6.1 6.9-6.1h145.6c2.9 0 6.9 2.9 6.9 6.1v37.5c0 3.2-4 6.9-6.9 6.9M20.3 77.7c0-3.2 4-6.9 6.9-6.9h145.6c3.2 0 6.9 3.7 6.9 6.9v37.5c0 3.2-4 6.1-6.9 6.1M20.3 131.6c0-3.2 4-5 6.9-5h145.6c3.2 0 6.9 1.9 6.9 5v37.5c0 3.2-4 5.3-6.9 5.3" opacity=".08"/><g fill="#4caf50"><use xlink:href="#E"/><use xlink:href="#E" x="8"/><use xlink:href="#E" x="16"/><path d="M36.2 104.5c0 .5-.8 1.1-1.3 1.1-.5.3-1.3-.3-1.3-1.1V88c0-.5.8-1.1 1.3-1.1s1.3.5 1.3 1.1v16.5z"/><use xlink:href="#F"/><use xlink:href="#F" x="8"/><path d="M36.2 158.5c0 .5-.8 1.1-1.3 1.1-.5.3-1.3-.3-1.3-1.1V142c0-.5.8-1.1 1.3-1.1s1.3.5 1.3 1.1v16.5z"/><use xlink:href="#G"/><use xlink:href="#G" x="8"/></g><use xlink:href="#H" fill="#f3f4f5"/><circle cx="142" cy="42.3" r="8.2" fill="#fff"/><g fill="#f3f4f5"><path d="M141.7 96c0 .8-.5 1.3-1.3 1.3H61.5c-.8 0-1.3-.5-1.3-1.3s.5-1.3 1.3-1.3h78.9c.8 0 1.3.5 1.3 1.3z"/><circle cx="142" cy="96.3" r="8.2"/><use xlink:href="#H" y="106.3"/><circle cx="142" cy="150.2" r="8.2"/></g><g fill="#4caf50"><use xlink:href="#I"/><use xlink:href="#I" y="54"/><use xlink:href="#I" y="107.9"/><circle cx="142" cy="150.2" r="4"/><circle cx="142" cy="96.3" r="4"/><circle cx="142" cy="42.3" r="4"/></g><g opacity=".3" fill="#1f2835"><use xlink:href="#J"/><use xlink:href="#J" x="20.2"/><use xlink:href="#J" x="20.2" y="-53.9"/><use xlink:href="#J" y="-53.9"/><use xlink:href="#J" y="53.9"/><use xlink:href="#J" x="20.2" y="53.9"/></g><defs ><path id="B" d="M166.4 68.4c0 3.2-1.6 5-4.8 5H38.4c-3.2 0-4.8-1.9-4.8-5v-5.6c0-3.2 1.6-5.3 4.8-5.3h123.3c3.2 0 4.8 2.1 4.8 5.3v5.6z"/><path id="C" d="M166.4 122.3c0 3.2-1.6 6.9-4.8 6.9H38.4c-3.2 0-4.8-3.7-4.8-6.9v-5.6c0-3.2 1.6-6.1 4.8-6.1h123.3c3.2 0 4.8 2.9 4.8 6.1v5.6z"/><path id="D" d="M166.4 176.3c0 3.2-1.6 6.1-4.8 6.1H38.4c-3.2 0-4.8-2.9-4.8-6.1v-5.6c0-2.9 1.6-4.3 4.8-4.3h123.3c3.2 0 4.8 1.3 4.8 4.3v5.6z"/><path id="E" d="M36.2 50.6c0 .5-.8 1.1-1.3 1.1s-1.3-.5-1.3-1.1V34.1c0-.5.8-1.1 1.3-1.1s1.3.5 1.3 1.1v16.5z"/><path id="F" d="M44.2 104.3c0 .5-.5 1.1-1.1 1.1h-.3c-.5 0-1.1-.5-1.1-1.1V88c0-.5.5-1.1 1.1-1.1h.3c.5 0 1.1.5 1.1 1.1v16.3z"/><path id="G" d="M44.2 158.5c0 .5-.8 1.1-1.3 1.1s-1.3-.5-1.3-1.1V142c0-.5.8-1.1 1.3-1.1s1.3.5 1.3 1.1v16.5z"/><path id="H" d="M142.5 42.9c0 .8-.5 1.3-1.3 1.3H61.5c-.8 0-1.3-.5-1.3-1.3s.5-1.3 1.3-1.3h79.4c1.1-.1 1.6.5 1.6 1.3z"/><path id="I" d="M166.2 42.3c0 2.1-1.9 4-4 4s-4-1.9-4-4 1.9-4 4-4 4 1.9 4 4z"/><path id="J" d="M144.6 99.2c-1.6 1.6-4 1.6-5.6 0s-1.6-4 0-5.6"/></defs></svg>