<svg xmlns="http://www.w3.org/2000/svg" viewBox="0 0 563.9 98.4"><path d="M128.3.7H5.7a4.23 4.23 0 0 0-4.2 4.2v22.7a4.23 4.23 0 0 0 4.2 4.2h122.7a4.23 4.23 0 0 0 4.2-4.2V4.9c-.1-2.3-2-4.2-4.3-4.2zm-106.8 20c0 .6-.5 1-1 1h-8c-.6 0-1-.5-1-1v-8c0-.6.5-1 1-1h8c.6 0 1 .5 1 1v8zm80.1-2.1c-.2.2-.4.4-.7.5-.4.2-.9.4-1.5.4-3.4 0-3.8-4.7-1.2-5.8.2-.1.4-.2.7-.2.2-.1.5-.1.7-.1 1.6 0 2.9 1.3 2.9 3 .1.9-.3 1.7-.9 2.2zm10.1.8c-1.6 0-2.9-1.3-2.9-3s1.3-3 2.9-3 2.9 1.3 2.9 3-1.3 3-2.9 3zm11.6 0c-1.6 0-2.9-1.3-2.9-3s1.3-3 2.9-3 2.9 1.3 2.9 3-1.3 3-2.9 3zm5 14.3H5.7a4.23 4.23 0 0 0-4.2 4.2v22.7a4.23 4.23 0 0 0 4.2 4.2h122.7a4.23 4.23 0 0 0 4.2-4.2V37.9c-.1-2.3-2-4.2-4.3-4.2zm-106.8 20c0 .6-.5 1-1 1h-8c-.6 0-1-.5-1-1v-8c0-.6.5-1 1-1h8c.6 0 1 .5 1 1v8zm78.3-1.1c-.1 0-.1 0 0 0-.1 0-.1 0 0 0-.5 0-.9-.1-1.3-.3 0 0-.1 0-.1-.1-2.2-1-2.2-4.6 0-5.5.1 0 .2-.1.4-.1h.4c.2 0 .4-.1.6-.1 1.3 0 2.1.7 2.6 1.5.8 1.8 0 4.6-2.6 4.6zm11.9 0c-1.6 0-2.9-1.3-2.9-3s1.3-3 2.9-3 2.9 1.3 2.9 3-1.3 3-2.9 3zm11.6 0c-1.6 0-2.9-1.3-2.9-3s1.3-3 2.9-3 2.9 1.3 2.9 3-1.3 3-2.9 3zm5 14.1H5.7a4.23 4.23 0 0 0-4.2 4.2v22.7a4.23 4.23 0 0 0 4.2 4.2h122.7a4.23 4.23 0 0 0 4.2-4.2V70.9c-.1-2.3-2-4.2-4.3-4.2zm-107.8 21h-8c-.6 0-1-.5-1-1v-8c0-.6.5-1 1-1h8c.6 0 1 .5 1 1v8c0 .6-.5 1-1 1zm79.2-2.3c-1.6 0-2.9-1.3-2.9-3s1.3-3 2.9-3 2.9 1.3 2.9 3-1.3 3-2.9 3zm12 0c-1.6 0-2.9-1.3-2.9-3s1.3-3 2.9-3 2.9 1.3 2.9 3-1.3 3-2.9 3zm11.6 0c-1.6 0-2.9-1.3-2.9-3s1.3-3 2.9-3 2.9 1.3 2.9 3-1.3 3-2.9 3z" fill="#1f2835"/><path d="M110.1 52.4a43.45 43.45 0 0 1-5.5 18.1H88.4l.8-3.5h-3.6l-.9 3.5H68V50.7h19.6a84.7 84.7 0 0 1-1.4 13.7h3.5a84.7 84.7 0 0 0 1.4-13.7h5.7c-.4-1-.3-2.1.3-3H91c-.1-4.8-.6-9.4-1.4-13.8h-3.5c.8 4.3 1.3 8.9 1.4 13.8H68V27.9h16.8l.9 3.6h.9c.9 0 1.7-.1 2.6-.1-.3-1.2-.5-2.4-.8-3.5h16.3c3.1 5.7 5.1 12.1 5.5 18.9.4-.2.8-.2 1.2-.2h.4c1 0 1.7.4 2.2 1-.4-11.3-4.7-21.5-11.6-29.5-.2.3-.4.5-.7.7-.3.3-.7.6-1.3.7-.3.1-.6.2-.9.2-.5 0-.9-.1-1.2-.3 1.3 1.4 2.6 3 3.7 4.6H87.4c-1-2.9-2.1-5.6-3.3-8.1-1.8-3.6-4-6.6-6.4-9 7.1 1.9 13.4 5.6 18.6 10.5-.2-.7-.2-1.6.2-2.3.3-.6.7-1.2 1.4-1.5.1 0 .1-.1.1-.1C89.5 6 78.4 1.4 66.1 1.4h-1c-26 .6-46.9 21.8-46.9 47.9A48.32 48.32 0 0 0 20.8 65c.2-.2.4-.3.7-.3h.7c.1-.1.3-.2.5-.2.7 0 1.4 0 2.1-.1-1.6-4.3-2.6-8.9-2.8-13.7h18.2c.2 7.1 1.1 13.8 2.7 19.8H27.6c-.6-1.1-1.2-2.3-1.7-3.5H22c-.2 0-.3 0-.5-.1C28.4 84.4 45.2 96.8 65 97.2h1c12.3 0 23.5-4.6 32-12.3-2.2-1.4-1.6-5.5 1.6-5.5 1.2 0 2 .6 2.5 1.4C109 73 113.3 63 113.9 51.9c-.5.6-1.2 1-2.2 1-.6 0-1.2-.2-1.6-.5zM68 5.7c1.9.4 3.7 1.4 5.5 2.9 3.8 3.1 7.2 8.5 9.7 15.5H68V5.7zM35 18.2c5-5 11.2-8.8 18.1-10.9-3.7 3.8-6.8 9.2-9.1 15.7-.1.3-.2.7-.3 1H30.2c1.4-2.1 3-4 4.8-5.8zm0 62c-1.8-1.8-3.4-3.7-4.8-5.8h13.6c1 2.9 2.1 5.6 3.3 8.1 1.7 3.4 3.8 6.3 6 8.6C46.2 89 40 85.2 35 80.2zM64 93c-2.2-.3-4.4-1.3-6.5-3-3.8-3.1-7.2-8.5-9.7-15.5H64V93zm0-22.5H46.3c-1.7-5.9-2.7-12.6-2.8-19.8H64v19.8zm0-22.8H43.4c.1-4.8.6-9.4 1.4-13.8-1.1 0-2.2.1-3.3 0-.8 4.4-1.3 9-1.4 13.8H22a44.15 44.15 0 0 1 5.6-19.8h15.3c-.3 1.1-.6 2.3-.8 3.5 1.1 0 2.2-.1 3.4-.1.3-1.2.5-2.3.8-3.4H64v19.8zM64 24H47.9c.8-2.2 1.7-4.3 2.7-6.2 2-4 4.5-7.1 7-9.2 2.1-1.7 4.3-2.7 6.5-3V24zm9.5 65.9c-1.8 1.5-3.6 2.4-5.5 2.9V74.5h15.2c-.8 2.3-1.7 4.4-2.7 6.3-2.1 3.9-4.5 7-7 9.1zm23.7-9.7c-5.3 5.3-12 9.3-19.5 11.3 3.9-3.8 7.1-9.4 9.4-16.1.1-.3.2-.7.3-1H102c-1.4 2.1-3.1 4-4.8 5.8zM109 47.7h-6.6c.4.7.5 1.5.4 2.2 0 .2-.1.5-.1.7h6c-.4-.9-.2-2 .3-2.9z" opacity=".6" fill="#5f677180" stroke="#1f2835" stroke-width=".5" stroke-miterlimit="10"/><path d="M12.6 78.7c-.4 0-1.1-.1-1.5-.6s-.4-1-.4-1.4l6.3-49c0-.3 1-6.3 5.6-7.9.4-.2 2-.7 3.8-.3 3.1.7 5.2 3.5 5.6 4.8l14.7 49.1c.1.2 1 2.2-.2 4.1-.9 1.5-2.4 2-3.5 2.1-2.2.2-4.5-1.4-5.5-4L25.8 38l-4.4 38.8c0 .1 0 .8-.6 1.4-.7.6-1.5.5-1.6.5h-6.6zM45 48.5l11-21.8c.1-.2.8-1.7 2.4-2.3 1.6-.5 3.3.2 4.3 1.4.7 1 .8 2 .8 2.4L52 52c-.4.3-1.5 1.2-3.2 1.2-.6 0-2.4 0-3.4-1.4-1.1-1.4-.5-3.1-.4-3.3zm1.3 16.2l19.4-40.9c.6-1.3 2.1-4 4.6-4.5.1 0 3-.6 4.4 1.4 1.2 1.7.4 3.8.3 3.9L55 67.4c-.1.4-.9 2.6-3.3 3.5-.4.2-2.6 1.1-4.5-.2-1.1-.7-1.4-1.7-1.5-2-.7-2 .5-3.7.6-4zm76.4-21.3c-.3-1.6-2.7-13-13.3-20-3.3-2.2-6.5-3.3-9.1-4-.3.1-.6.2-.9.2-.9 0-1.5-.3-2-.8H80.1c-.2 0-.9 0-1.6.4-.7.5-1 1.2-1.1 1.4-.6 1.4-11.8 25.7-27.1 59.3 0 0-.3.5-.1 1 .1.3.5.6.8.7l8.2.1c.2 0 .7 0 1.2-.3.5-.4.7-.9.8-1l27-51.4h6.6c1.9.3 7.2 1.3 11.6 5.7 6.4 6.3 5.9 14.7 5.8 16.2s-.8 10.8-8.4 16.1c-2.8 1.9-5.6 2.7-7.4 3H70.2c-1.9.4-3.5 1.7-4.1 3.5-.5 1.5-.2 3.5 1.1 4.8 1.1 1.1 2.4 1.2 2.9 1.3 11.2.2 19.7.1 25.5 0 1.8 0 3.8-.1 6.3-.8 8.4-2.2 13.3-8.5 14.8-10.5 8.4-11.2 6.2-24 6-24.9z" stroke-miterlimit="10" fill="#4caf50" stroke="#fff" stroke-width="2"/><path d="M219.5 44.7c-.6-1.8-2.6-7.5-8.4-11.4-.3-.2-5-3.4-11.2-3.8-.4 0-1-.1-1.9 0-4.5.1-7.7 1.9-9.2 2.8-3.5 2-5.7 4.4-6.9 6.1-1-1.3-4.6-5.7-10.1-7.7-3-1.1-6-1.3-6.3-1.3-.4 0-1.9-.1-3.6.1-5.3.7-9.3 4-10.4 4.9a22.83 22.83 0 0 0-7 10.5c0 .2-.1.5-.1.7v.6l-.1 21.6c.2.2 1.5 1.5 3.5 1.5 2.1 0 3.4-1.5 3.6-1.7V46.1c.4-1.3 1.6-4 4.3-6.3 1-.8 3.7-2.9 7.6-3.3.7-.1 1.2-.1 1.4-.1 4.5 0 7.7 2.4 8.7 3.2 2.8 2.3 4.1 5 4.6 6.4l-.1 21.6c.1.2 1.5 2 3.9 2s3.7-1.7 3.9-1.9V46.1c.5-1.4 1.4-3.5 3.2-5.4.6-.6 4-4.1 9.3-4.3h1c1.6.1 5.9.5 9.4 3.8 2.3 2.2 3.3 4.6 3.8 6v21.5c.2.2 1.5 1.7 3.6 1.7 1.9 0 3.2-1.2 3.4-1.4l.2-22.2c0-.4 0-.8-.1-1.1z" fill="#1f2835"/><circle cx="245" cy="49.2" r="18" fill="none" stroke="#1f2835" stroke-width="5"/><path d="M272.6 32.7h19.1l-20.1 31.8v3.1c0 .1 0 .7.5 1.1s1 .3 1.1.3l24.6.1c.2-.3.8-1.2.7-2.6-.1-.9-.5-1.6-.7-1.9h-20.3l19.6-30.8c.1-.3.3-.7.4-1s.1-.8.1-1.3c.1-1.1.1-1.7-.2-2.2-.1-.2-.5-.8-1.6-1h-23a3.25 3.25 0 0 0-.8 2.6 2.36 2.36 0 0 0 .6 1.8z" fill="#1f2835"/><path d="M338.3 47.9c0 13.6-6.7 20.3-20.2 20.3H306v-40h12.1c6.8 0 11.8 1.6 15.2 4.9 3.3 3.3 5 8.2 5 14.8zm-3.2 0c0-2.6-.3-5-.8-7-.5-2.1-1.4-3.8-2.7-5.3-1.3-1.4-3.1-2.5-5.3-3.3s-5-1.1-8.3-1.1h-9v34h9.1c3.3 0 6.1-.4 8.3-1.2s3.9-1.9 5.3-3.4c1.3-1.5 2.2-3.3 2.8-5.4.4-2.1.6-4.6.6-7.3zm28.7-20.3c2.7 0 5.2.5 7.5 1.5s4.3 2.4 6 4.2 3 4 3.9 6.5 1.4 5.3 1.4 8.5c0 3.1-.5 5.9-1.4 8.5s-2.2 4.7-3.9 6.6-3.6 3.3-5.9 4.3-4.8 1.5-7.6 1.5-5.3-.5-7.6-1.5-4.3-2.4-6-4.2-3-4-3.9-6.6-1.4-5.4-1.4-8.5.5-6 1.4-8.5 2.2-4.7 3.9-6.5 3.7-3.2 6-4.1c2.4-1.3 4.9-1.7 7.6-1.7zm0 38.4c2.3 0 4.4-.4 6.3-1.2s3.6-2 5-3.5 2.5-3.4 3.3-5.6 1.2-4.8 1.2-7.6c0-2.9-.4-5.4-1.2-7.6s-1.9-4-3.3-5.5-3.1-2.6-5-3.4-4-1.1-6.3-1.1-4.4.4-6.4 1.2c-1.9.8-3.6 1.9-5 3.4s-2.5 3.3-3.3 5.5-1.2 4.7-1.2 7.5.4 5.4 1.2 7.6 1.9 4.1 3.3 5.6 3.1 2.7 5 3.5c2 .8 4.1 1.2 6.4 1.2zm64.2 2.2h-3V33.1l-14.5 35.2h-3.1L393 33.1v35.2h-3v-40h4.3L409 64.6l14.8-36.3h4.2v39.9zm41.9 0h-3.3l-4.9-13h-19.9l-2.3 6.5-2.4 6.5h-2.9l3.9-10.1 11.5-29.9h4.1l16.2 40zm-9.2-15L451.4 31l-8.8 22.2h18.1zm19.3 15h-3v-40h3v40zm43 0h-3l-25-36.5v36.5h-3v-40h3.1L520 64.7V28.2h3v40zm24.5 1.3c-2.7 0-5.1-.3-7.2-.9-2-.6-3.8-1.4-5.1-2.5-1.4-1.1-2.5-2.4-3.2-3.9s-1.2-3.2-1.3-5.1h2.9c.3 1.8.8 3.3 1.7 4.5.8 1.2 1.8 2.2 3 2.9s2.6 1.2 4.1 1.5 3.1.4 4.9.4 3.4-.2 4.9-.6c1.4-.4 2.7-.9 3.7-1.7 1-.7 1.8-1.6 2.3-2.6s.8-2.2.8-3.4c0-1.4-.2-2.5-.7-3.4s-1.3-1.7-2.4-2.4-2.6-1.3-4.4-1.8l-6.7-1.7a43.96 43.96 0 0 1-5.7-1.7c-1.6-.6-2.9-1.4-3.9-2.2s-1.8-1.8-2.3-2.9-.7-2.4-.7-3.8c0-1.6.3-3 1-4.3s1.6-2.4 2.8-3.4a13.96 13.96 0 0 1 4.4-2.2c1.7-.5 3.6-.8 5.7-.8s4 .2 5.7.7 3.2 1.2 4.5 2.1 2.3 2 3.1 3.3 1.3 2.8 1.5 4.4H558c-.3-1.1-.7-2.1-1.3-3s-1.4-1.7-2.4-2.4-2.1-1.2-3.5-1.6c-1.3-.4-2.9-.6-4.6-.6-3.6 0-6.4.7-8.2 2s-2.8 3.1-2.8 5.5a7.78 7.78 0 0 0 .5 2.8c.3.8.9 1.5 1.8 2.1.8.6 1.9 1.2 3.3 1.7s3 .9 5.1 1.3l3.7.8 3.7 1c1.2.4 2.3.8 3.4 1.4 1.1.5 2 1.2 2.8 2s1.4 1.7 1.9 2.8.7 2.4.7 3.9c0 1.7-.4 3.3-1.1 4.7s-1.7 2.7-3 3.7-2.8 1.9-4.6 2.4c-1.9.7-3.8 1-5.9 1z" stroke-width=".5" stroke-miterlimit="10" fill="#4caf50" stroke="#4caf50"/></svg>