<svg xmlns="http://www.w3.org/2000/svg" xmlns:xlink="http://www.w3.org/1999/xlink" viewBox="0 0 185 85.3" xmlns:v="https://vecta.io/nano"><style><![CDATA[.f{fill:#fff}.g{fill:#d1d1d1}.h{fill:#ed1c24}.i{enable-background:new}.j{fill-rule:evenodd}]]></style><path d="M47.2,30.4h42.7v25.3H47.2V30.4z" fill="#f4f4f4"/><path d="M89.7 30.7v24.7H47.5V30.7h42.2m.5-.6H47V56h43.4V30.1h-.2z" class="g"/><path d="M47.5,30.6h42.2v5.9H47.5V30.6z" fill="#0061b2"/><path d="M47.5,49.5h42.2v5.9H47.5V49.5z" fill="#fdb827"/><path d="M61.3 38.1l-2.6 6.7-1-5.6c-.1-.7-.6-1-1.2-1h-4.3l-.1.3c.9.2 1.9.5 2.5.8.4.2.5.4.6.9l2 7.8h2.7l4.1-9.8-2.7-.1zm3.8 0L63 47.9h2.5l2.1-9.8c0 0-2.5 0-2.5 0zm5.8 2.7c0-.4.4-.7 1.1-.8.4-.1 1.3-.1 2.5.4l.4-2.1a7.46 7.46 0 0 0-2.4-.4c-2.5 0-4.2 1.3-4.3 3.3 0 1.4 1.3 2.2 2.2 2.7 1 .5 1.3.7 1.3 1.2 0 .7-.8 1-1.5 1-1.3 0-2-.4-2.6-.6l-.4 2.2c.6.3 1.7.5 2.8.5 2.7 0 4.4-1.3 4.4-3.3.1-2.8-3.5-2.9-3.5-4.1m7.4 3.6l1.3-3.6.7 3.6h-2zm.9-6.3c-.5 0-.9.3-1.1.7l-3.8 9.1H77l.5-1.5h3.3l.3 1.5h2.4l-2-9.8c0 0-2.3 0-2.3 0z" fill="#0061b2"/><path d="M.2 59.5h42.7v25.3H.2V59.5z" fill="#083ba0"/><path d="M42.7 59.8v24.7H.5V59.8h42.2m.5-.6H0v25.9h43.4V59.2h-.2z" class="g"/><g class="f j"><path d="M18.4 73.8h.7c.3 0 .5.1.5.4s-.2.4-.5.4h-.8v-.8zm-.8 2.9h1.7c.6 0 1.2-.3 1.2-1 0-.4-.2-.8-.6-.9.3-.1.5-.4.5-.7 0-.6-.4-.9-1.1-.9h-1.6v3.5zm.8-1.6h.8c.3 0 .5.1.5.5s-.3.5-.6.5h-.8"/><use xlink:href="#C"/><path d="M23.7 76.7h.7v-1.3c0-.5.2-.7.5-.7s.4.2.4.6v1.4h.7v-1.5c0-.6-.2-1-.9-1-.3 0-.6.1-.8.4h0v-.3h-.6m2.9 2.4h.7v-.9l.3-.3.7 1.1h.7L28 75l.9-.9h-.8l-.9.9v-1.8h-.7m-9.1-2.1c0 .8.7 1.2 1.5 1.2.9 0 1.4-.5 1.4-1.1 0-.8-.8-.9-1-1-.9-.2-1-.3-1-.5 0-.3.3-.4.5-.4.4 0 .7.1.7.5h.7c0-.8-.7-1.1-1.4-1.1-.6 0-1.3.3-1.3 1 0 .6.5.8 1 1 .5.1 1 .2 1 .6s-.4.4-.7.4c-.4 0-.8-.2-.8-.6"/><path d="M21.5 69h-.7v.7h-.4v.5h.4v1.5c0 .5.4.6.8.6h.4v-.5h-.2c-.2 0-.3-.1-.3-.3v-1.2h.5v-.5h-.5"/><use xlink:href="#C" x="1.3" y="-4.4"/><path d="M25 72.2h.7v-1.3c0-.5.2-.7.5-.7s.4.2.4.6v1.4h.7v-1.5c0-.6-.2-1-.9-1-.3 0-.6.1-.8.4h0v-.3H25m4.6 1.2c0 .4-.1.8-.6.8-.4 0-.6-.4-.6-.8s.2-.8.6-.8c.5 0 .6.4.6.8m0 1.2h.6v-3.4h-.7V70h0 0c-.2-.2-.4-.4-.7-.4-.7 0-1.1.6-1.1 1.3s.4 1.3 1.1 1.3c.3 0 .6-.1.8-.4h0"/><use xlink:href="#C" x="9.9" y="-4.4"/><path d="M33.6 72.2h.7v-1.1c0-.4.2-.8.7-.8h.2v-.6h-.1c-.3 0-.7.2-.8.5h0v-.5h-.6"/><path d="M37.1 71c0 .4-.1.8-.6.8-.4 0-.6-.4-.6-.8s.2-.8.6-.8c.5 0 .6.4.6.8m0 1.2h.6v-3.4H37V70h0 0c-.2-.2-.4-.4-.7-.4-.7 0-1.1.6-1.1 1.3s.4 1.3 1.1 1.3c.3 0 .6-.1.8-.4h0m-23.6 3.8l-.6.6c-.7.6-1.8 1.1-1.8 1.1l-1.9-4.7s.3-.2 1.1 0c.3.1.5.3.9.4s.8 0 1 0 .9-.4.9-.4v-2.3s-.9.3-1.2.3c-1.4 0-1.6-.7-2.4-.7-.9 0-1.5.4-1.5.4l-.1-1-1.2-.9V70l.7.7 3.1 7-.7.4-3.2-2.2s-.6-.4-.7-.8c-.1-.3-.1-.8-.1-.8v-5.5c0-.8.6-1.4 1.4-1.4h5.4c.8 0 1.4.6 1.4 1.4v5.4c-.2 0-.2.9-.5 1.4M11 73.8c.2 0 .4.1.7.1s.6 0 .8-.1.5-.2.5-.2v.8.2.2c0 .1 0 .1-.1.2s-.1.2-.2.3l-.2.2c-.2.1-1 .7-1 .7l-1-2.4c-.1-.2.3 0 .5 0m1.4-5.6c.4 0 .5.3.5.6v.3c-.2.2-.6.5-1.5.5-.6 0-1.3-.6-2.1-.6-.5 0-.9.1-.9.1l-1.1-.9h5.1zm-3.7 8.1L7 75.2s-.1 0-.1-.1l-.2-.2c-.1-.1-.1-.3-.1-.4v-2.7"/></g><path d="M141.9,30.3h42.7v25.3h-42.7V30.3z" class="f"/><path d="M152.1 47.3v.3h7.3l.2-.3zm0-1.4v.3h8.2l.2-.3zm0-1.4v.3h9.2l.2-.3zm0 .7v.4h8.7l.2-.4zm0-1.3v.3h9.6l.2-.3zm0 6.1v.3h5.4l.2-.3zm0 .7v.3h4.9l.2-.3zm0-2.1v.3h6.3l.3-.3zm0 .7v.3h5.9l.2-.3zm0-1.3v.2h6.8l.2-.2zm0-1.4v.4h7.8l.2-.4zm8.3-6.5l-.2-.3h-8.1v.3zm-.6-.6l-.2-.3h-7.5v.3zm1 1.3l-.2-.3h-8.5v.3zm.9 1.3l-.2-.2h-9.4v.2zm-.4-.6l-.2-.4h-9v.4zm.8 1.1h0l-10-.1v.3h10.1l.1.4h-10.1v.3h10.1c0-.3 0-.6-.2-.9zm-4.2-5.9l-.2-.3h-5.6v.3zm1.5 2.1l-.3-.3h-7v.3zm-2-2.8l-.2-.3h-5.1v.3zm1 1.4l-.2-.3h-6.1v.3zm.5.7l-.3-.3h-6.5v.3z" fill="#b5b5b5"/><path d="M157.7 43.6c.2-.1.4-.2.5-.3.9-.6 2.1-.1 2.6.4 1.1 1 1 3.1-.1 4-.7.6-1.5.7-2.3.4l-.6-.3v1 .6c0 .2-.1.3-.2.3h-1.3c-.2 0-.3-.1-.3-.3v-4.7c0-.4-.1-.8-.1-1.2 0-.2 0-.3.2-.3.4-.1.8-.2 1.3-.2.2 0 .3 0 .4.3-.2.1-.2.2-.1.3zm2 2.2c0-.2 0-.3-.1-.5-.3-.7-1.1-.9-1.5-.4-.3.4-.4.8-.2 1.3.1.4.4.6.8.7.6-.1.9-.4 1-1.1zm8.7 2.8c.3 0 .6-.1.9-.1.1 0 .2 0 .3-.1.4-.2.5-.4.2-.8l-1.1-1.5a1.92 1.92 0 0 1-.4-1.2v-1.5c0-.1 0-.2.2-.2h1.6v1.5c-.1.6.2 1.1.6 1.6.2.2.3.2.5 0 .3-.5.6-1 .5-1.7v-1.1c0-.1 0-.2.2-.2.5 0 .9 0 1.4-.1.2 0 .3.1.3.3v2.1c0 .1-.1.3-.1.4-.8 1.3-1.7 2.6-2.7 3.8-.1.1-.2.2-.4.2-.5 0-.9 0-1.4.1-.2 0-.3-.1-.4-.3.1-.4 0-.8-.2-1.2zm-2.4-5h0c.3-.5.3-.5.8-.4.3.1.5.1.8.2.1 0 .2.1.1.2-.2 1.3-.1 2.6 0 4v.1c0 .5 0 .5-.5.5h-.9c-.2 0-.4 0-.4-.3 0-.1 0-.2-.1-.3-.1.1-.2.1-.2.2-.8.8-2 .6-2.7-.1-1-1-1.1-2.8-.2-3.9.6-.7 1.7-1 2.5-.7.3.1.5.3.8.5zm-2.2 2c0 .6.4 1.1 1 1.1s1-.4 1-1.1-.4-1.1-1-1.1-1 .5-1 1.1z" fill="#00ce00"/><path d="M155.8 38.3c.4-.1.9-.2 1.4-.2 0 .2 0 .4.1.6.1-.1.2-.2.3-.2.4-.3.8-.5 1.3-.3.3.1.5.3.7.5.3-.2.6-.4 1-.5.3-.1.7 0 1 .2s.4.4.4.7v2.6c0 .2-.1.2-.2.2h-.9c-.2 0-.2-.1-.2-.3v-1.8c0-.4-.1-.6-.4-.6s-.6.2-.6.6v.9.9c0 .2-.1.3-.3.3h-.8c-.2 0-.3-.1-.3-.3V40v-.3c0-.4-.2-.5-.4-.5-.3 0-.6.2-.6.5v1.8c0 .3-.1.3-.3.3h-.8c-.2 0-.2-.1-.2-.2v-2.1c-.1-.4-.1-.8-.2-1.2zm9.4 3.1c-.2.1-.4.2-.5.3-.7.4-1.9.2-1.9-1l.1-2.1c.1-.3.1-.4.4-.4h.7c.2 0 .2 0 .2.2 0 .6-.1 1.1-.1 1.7v.2c.1.3.2.5.5.5s.5-.3.5-.6v-1.7c0-.2.1-.3.3-.3h.9c.2 0 .3.1.3.3 0 .6-.1 1.1-.1 1.7 0 .5 0 .9.1 1.4 0 .3-.1.4-.3.3h-.7c-.2 0-.4 0-.4-.3.1-.1 0-.1 0-.2zm6.6-3.2v1.2h-.7c-.2 0-.2.1-.2.2v.6a.47.47 0 0 0 .5.5c.2 0 .3 0 .6-.1 0 .3 0 .6-.1.8 0 .1-.1.1-.2.2-.5.2-1 .3-1.5.2-.4-.1-.6-.4-.6-.8s0-.8.1-1.2c0-.4 0-.4-.4-.5v-.9l.1-.1c.2 0 .2-.2.2-.3v-.9c0-.2 0-.3.3-.2s.5.1.8.1.3.1.3.3v.6c0 .3 0 .3.4.3h.4zm-4.5-1.7h1.5c0 .5-.1.9-.1 1.4v3.7c0 .2 0 .3-.2.3h-.8c-.2 0-.3-.1-.3-.3v-3.4c0-.6-.1-1.1-.1-1.7zm6.5 1.7v3.3c0 .2-.1.3-.3.3h-.6c-.3 0-.4 0-.4-.3l-.1-2.8v-.4l1.4-.1h0zm-.6-.3c-.5 0-.8-.3-.8-.7a.68.68 0 0 1 .7-.7c.4 0 .8.3.8.7a.68.68 0 0 1-.7.7z" fill="#004284"/><path d="M184.3 30.6v24.7h-42.2V30.6h42.2m.6-.6h-43.4v25.9h43.4V30h0z" class="g"/><path d="M94.7,30.3h42.7v25.3H94.7V30.3z" fill="#081f60"/><path d="M137.1 30.6v24.7H94.9V30.6h42.2m.6-.6H94.3v25.9h43.4V30h0z" class="g"/><path d="M109.8 34.2c-4.8 0-8.7 3.9-8.7 8.8a8.75 8.75 0 0 0 8.8 8.8c2.2 0 4.3-.9 5.9-2.3.3-.3.6-.6.9-1h-1.8l-.7-.9h3.1c.2-.3.4-.6.5-1h-4.1c-.1-.3-.3-.6-.4-.9h4.8c.3-.9.4-1.8.4-2.7 0-.7-.1-1.3-.2-1.9H113l.2-.9h4.8c-.1-.3-.2-.7-.4-1h-4.1c.1-.3.3-.6.5-.9h3.1c-.2-.3-.4-.7-.7-1h-1.7l.9-.9c-1.4-1.3-3.5-2.2-5.8-2.2h0z" fill="#931b1d"/><path d="M130.3,43c0,4.8-3.9,8.8-8.8,8.8c-4.8,0-8.8-3.9-8.8-8.8s3.9-8.8,8.8-8.8S130.3,38.2,130.3,43z" fill="#f16622"/><path d="M130.3 43.1c0 4.8-3.9 8.8-8.8 8.8-4.8 0-8.8-3.9-8.8-8.8a8.75 8.75 0 0 1 8.8-8.8c4.9.1 8.8 3.9 8.8 8.8z" fill="#f7981d"/><path d="M109.8 34.4c-4.8 0-8.7 3.9-8.7 8.8a8.75 8.75 0 0 0 8.8 8.8c2.2 0 4.3-.9 5.9-2.3.3-.3.6-.6.9-1h-1.8l-.7-.9h3.1c.2-.3.4-.6.5-1h-4.1c-.1-.3-.3-.6-.4-.9h4.8c.3-.9.4-1.8.4-2.7 0-.7-.1-1.3-.2-1.9H113l.2-.9h4.8c-.1-.3-.2-.7-.4-1h-4.1c.1-.3.3-.6.5-.9h3.1c-.2-.3-.4-.7-.7-1h-1.7l.9-.9c-1.4-1.4-3.5-2.2-5.8-2.2h0z" fill="#cb2026"/><g class="f"><path d="M113 45.3l.1-.8h-.2c-.3 0-.4-.1-.4-.3l.3-1.6h.5l.1-.9h-.4l.1-.5h-1l-.5 3.4c0 .5.3.8.7.8s.6 0 .7-.1h0z"/><path d="M113.3 43.8c0 1.3.9 1.6 1.6 1.6s1-.1 1-.1l.1-.9s-.5.2-1 .2c-1 0-.8-.7-.8-.7h1.9l.1-.8c0-.6-.3-1.3-1.3-1.3-.9-.1-1.6.9-1.6 2h0zm1.7-1.3c.5 0 .4.6.4.7h-1c0-.1 0-.7.6-.7h0zm5.8 2.8l.1-1s-.4.2-.7.2c-.7 0-.9-.5-.9-1 0-1.1.6-1.7 1.2-1.7.4 0 .8.3.8.3l.1-1s-.6-.2-1-.2c-1 0-2.2 1-2.2 2.7 0 1.2.6 1.9 1.7 1.9l.9-.2h0zm-12.9-3.6c-.7 0-1.1.2-1.1.2l-.1.8s.4-.1 1-.1c.4 0 .6.1.6.3v.2h-.4c-.8 0-1.6.4-1.6 1.4 0 .8.5 1 .9 1 .7 0 1-.4 1-.4v.4h.8l.4-2.6c-.2-1.2-1.1-1.2-1.5-1.2h0zm.2 2c0 .1-.1.9-.7.9-.3 0-.4-.2-.4-.4s.1-.6.8-.6c.2.1.3.1.3.1h0zm2 1.7c.2 0 1.4.1 1.4-1.2 0-1.2-1.1-1-1.1-1.4 0-.2.1-.3.5-.3.1 0 .7.1.7.1l.1-.8s-.3-.1-.9-.1c-.7 0-1.4.3-1.4 1.2 0 1 1.2 1 1.2 1.4 0 .3-.3.3-.6.3-.4 0-.8-.1-.8-.1l-.1.8c-.1 0 .2.1 1 .1h0z"/><path d="M128.5 40.9l-.2 1.3s-.4-.5-.9-.5c-.8 0-1.6 1-1.6 2.2 0 .7.4 1.5 1.2 1.5.5 0 .9-.4.9-.4l-.1.3h.9l.7-4.5-.9.1h0zm-.4 2.5c0 .5-.2 1.1-.7 1.1-.4 0-.5-.3-.5-.7 0-.7.3-1.2.7-1.2.3 0 .5.2.5.8zm-25.3 2l.6-3.3.1 3.3h.7l1.2-3.3-.5 3.3h1l.7-4.5h-1.5l-.9 2.7-.1-2.7h-1.4l-.7 4.5h.8zm14.4 0c.3-1.6.3-2.8 1-2.6.1-.6.2-.8.4-1.1h-.1c-.4 0-.7.6-.7.6l.1-.5h-.9l-.6 3.6h.8zm5.8-3.7c-.7 0-1.1.2-1.1.2l-.1.8s.4-.1 1-.1c.4 0 .6.1.6.3v.2h-.4c-.8 0-1.6.4-1.6 1.4 0 .8.5 1 .9 1 .7 0 1-.4 1-.4v.4h.8l.4-2.6c-.3-1.2-1.2-1.2-1.5-1.2h0zm.2 2c0 .1-.1.9-.7.9-.3 0-.4-.2-.4-.4s.1-.6.8-.6c.2.1.2.1.3.1h0zm1.8 1.7c.3-1.6.3-2.8 1-2.6.1-.6.2-.8.4-1.1h-.1c-.4 0-.7.6-.7.6l.1-.5h-.9l-.6 3.6h.8 0z"/></g><path d="M142,59.3h42.7v25.3H142V59.3z" class="h"/><path d="M184.4 59.6v24.7h-42.2V59.6h42.2m.6-.5h-43.4V85H185V59.1h0z" class="g"/><path d="M171.7 70.4s.4.1.9.1c.7-.1 1.3-.4 1.4-.5.4-.2.5-.5.7-.7.3-.4.4-.7.5-1l2.2 1.1c-.1.2-.4.6-1 .9-.4.2-.7.3-1 .4-.5.1-1 .1-1.4.1-.1 0-.4 0-.8-.1l-1.5-.3h0z" fill="#62a644"/><path d="M171.7 70.4c.4-.1.7-.2.9-.3s.4-.3.5-.4l.3-.3c.1.1.1.2.3.4.1.1.2.1.3.2-.1.1-.4.2-.6.4-.1 0-.3.1-.7.1s-.7 0-1-.1h0z" fill="#4e5f2a"/><path d="M175.9 70.6c-.1 0-.1.1-.1.1V72h-2.7v-4.4h2.7v.9c.1.1.2.1.4.2v-1a.68.68 0 0 0-.7-.7h-2.2a.68.68 0 0 0-.7.7v5.2a.68.68 0 0 0 .7.7h2.2a.68.68 0 0 0 .7-.7v-2.2c-.2-.1-.3-.1-.3-.1z" class="f"/><path d="M174.1 72.3h.6v.6h-.6v-.6zm-.6.2h.3v.3h-.3v-.3zm1.5 0h.3v.3h-.3v-.3z" class="h"/><g class="f"><path d="M168.2 77v-1.9c.1-.1.4-.2.7-.3.4 0 .7.1.8.1.1-.1.3-.1.6-.1s.6.1.7.3c.1.1.2.4.2.4V77h-.5v-1.3s0-.2-.1-.3c0 0-.1-.1-.3-.1-.1 0-.2.1-.2.1V77h-.6v-1.3s0-.1-.1-.2-.1-.1-.2-.1-.1-.1-.3 0l-.1.1v1.4c-.2.1-.4.1-.6.1h0zm3.3-1.4h1.1v.5h-1.1v-.5zm3.3.3c0-.1 0-.5-.3-.8-.3-.2-.6-.3-.8-.3-.3 0-.9.1-.9.1v2.9h.5v-.9c.1.1.3.1.5.1.1 0 .4 0 .6-.2.4-.3.4-.8.4-.9zm-.6.1s-.1.3-.3.4c-.1.1-.3.1-.4.1s-.2-.1-.3-.1v-1h.4c.1 0 .2.1.3.1.4.2.3.5.3.5h0zm2.4-1c-.2-.1-.5-.1-.7-.1-.1 0-.4 0-.7.3a1.08 1.08 0 0 0-.3.7c-.1.4.1.9.4 1.1.2.1.4.1.7.1s.5-.1.6-.1.1-.1.2-.1v-.4h-.2l-.1.1c-.1.1-.4.1-.6 0-.2 0-.4-.2-.4-.4h1.4c.1-.5 0-1-.3-1.2zm-1 .7c0-.1 0-.1.1-.2s.2-.1.3-.1.2 0 .4.1c.1.1.1.1.1.2h-.9zm3-.2V75c-.1-.1-.2-.1-.4-.1-.1 0-.3-.1-.5 0-.1 0-.3.1-.4.1-.1.1-.2.4-.2.4s0 .3.1.4.3.1.4.2c.1 0 .1 0 .3.1.1 0 .1.1.2.1l.1.1c0 .1-.1.1-.1.1h-.2c-.1 0-.3-.1-.4-.1h-.2v.4c.1.1.2.1.4.1h.4c.1 0 .2 0 .4-.1.1-.1.2-.1.3-.3 0-.1.1-.2.1-.4s-.1-.3-.3-.5h-.2c-.1 0-.1-.1-.3-.1s-.1 0-.2-.1l-.1-.1.1-.1.1-.1h.2c.3.2.4.3.4.5-.1 0 0 0 0 0h0z"/><path d="M180.6 74.9c-.1 0-.3-.1-.5-.1-.1 0-.4 0-.5.1-.4.1-.5.5-.6.5-.1.1-.2.4-.1.8 0 .1.1.3.4.5s.6.3 1 .1c.1-.1.1-.1.2-.1v.1h.6v-2c-.3.1-.3.1-.5.1zm-.3 1.5c0 .1-.1.1-.2.1s-.1.1-.2.1-.1 0-.3-.1c-.1-.1-.1-.2-.1-.2-.1-.1 0-.2 0-.3s.1-.2.2-.4c.1-.1.3-.1.4-.1s.2 0 .3.1c-.1.1-.1.4-.1.8z"/><path d="M164.9 65.4h.1v11.7h-.1V65.4z" opacity=".7" class="i"/><path d="M157.6 69.4a3.84 3.84 0 1 1-7.8 0 3.84 3.84 0 0 1 3.9-3.9c2.1.1 3.9 1.8 3.9 3.9z"/><path d="M155.1 65.8c.1 0 .1.1.2.1h.1c1.3.7 2.2 2 2.2 3.5 0 2.2-1.8 3.9-3.9 3.9-2.2 0-3.9-1.8-3.9-3.9 0-2.2 1.8-3.9 3.9-3.9l1.4.3z"/></g><g class="h"><path d="M152.8 66.9c-.5.4-.9 1-1.1 1.7-.1.1-.1.4-.1.5v.5c0 .1.1.2.1.4h0c.1.2.1.4.3.6.1.1.1.2.3.4.3.3.6.4 1 .6.1 0 .2.1.3.1h.2c.2 0 .4 0 .6-.1.3-.1.5-.2.7-.4l.1-.1c.1-.1.3-.3.4-.5.1-.3.2-.6.2-1v-.1c0-.2 0-.4-.1-.5s-.1-.4-.2-.5v-.1c-.1-.2-.3-.4-.5-.5s-.5-.2-.8-.3v-.1c0-.6.4-1.2 1-1.4.1 0 .1 0 .1-.1h-.4c-.1 0-.3.1-.4.1 0 0-.1.1-.2.1s-.2.1-.3.1c-.6 0-.9.3-1.2.6h0z"/><path d="M154.8 66c-.1 0-.3.1-.5.1l-.2.1c-.1 0-.2.1-.3.1-.4.1-.7.4-1 .6-.5.4-.9 1-1 1.7-.1.1-.1.4-.1.5v.4c0 .1.1.2.1.4v.1c.1.2.1.4.3.6.1.1.1.2.3.4.2.3.6.4 1 .5.1 0 .2.1.3.1h.2c.2 0 .4 0 .6-.1.3-.1.5-.2.7-.4l.1-.1c.1-.1.3-.3.4-.5.1-.3.2-.6.2-.9v-.1c0-.2 0-.4-.1-.5s-.1-.4-.2-.4v-.1c-.1-.2-.3-.4-.5-.4-.2-.1-.5-.2-.8-.3h-.1v-.1c0-.6.4-1.2.9-1.5l.1-.1c-.2-.1-.3-.1-.4-.1h0z"/></g><path d="M161.9 76.9v-1.2c0-.5-.4-.9-1-.9-.2 0-.4.1-.5.1-.7-.3-1.2-.1-1.5.1v1.9h.6v-1.6s.1-.1.2-.1c.3 0 .4.1.4.4v1.1h.5v-1.5s.1-.1.2-.1c.3 0 .4.1.4.4v1.1l.7.3h0 0zm-3.3-.9a.94.94 0 0 0-1-1c-.7 0-1 .4-1 1 0 .8.6 1 1 1 .7 0 1-.6 1-1m-.6 0c0 .4-.2.6-.4.6-.3 0-.4-.2-.4-.6 0-.3.1-.6.4-.6.2 0 .4.2.4.6m-2.8 0c0-.5.4-.6.5-.6.3 0 .5.1.5.1l.1-.4c-.1 0-.3-.1-.6-.1-.6 0-1.1.4-1.1 1h0c0 .6.4 1 1.1 1 .3 0 .6-.1.6-.1l-.1-.4s-.3.1-.4.1c-.4 0-.6-.2-.6-.6m-1.3.9h.5V75c-.3-.1-.6-.1-.9-.1-.7 0-1.1.4-1.1 1.1s.6 1 1 1c.3 0 .4-.1.5-.1h0zm-.1-.5c-.1.1-.2.2-.4.2s-.4-.1-.4-.6c0-.4.3-.6.5-.6.1 0 .2 0 .3.1v.9h0zm-2.6.6c.4 0 .6-.1.9-.1v-2.8h-.5v.8c-.1-.1-.3-.1-.4-.1a.94.94 0 0 0-1 1c-.1 1.1.6 1.2 1 1.2m0-.4c-.3 0-.6-.1-.6-.6 0-.3.1-.6.4-.6.1 0 .3.1.4.1v1c0 .1-.1.1-.2.1m-1.3-.6a.94.94 0 0 0-1-1c-.7 0-1 .4-1 1 0 .8.6 1 1 1 .7 0 1-.6 1-1m-.6 0c0 .4-.2.6-.4.6-.3 0-.4-.2-.4-.6 0-.3.1-.6.4-.6.2 0 .4.2.4.6m-2.4.9l.8-2h-.6l-.4 1.3-.5-1.3h-.7l.8 2h.6 0z" class="f"/><path d="M94.8,59.4h42.7v25.3H94.8V59.4z" fill="#005944"/><path d="M137.2 59.7v24.7H95V59.7h42.2m.5-.5H94.3v25.9h43.4V59.2h0z" class="g"/><path d="M100.4 79.6h0c-.3 0-.4-.1-.5-.2s-.2-.4-.2-.9v-1.8h0l2.8 3.2h.4v-.2-.3-.2-.5-1.9h0c0-.6.1-.7.5-.8h0v-.3h-1.5v.3c.3 0 .4.1.5.2s.1.4.2.9v1.1h0l-2.2-2.5h-1.5v.3c.2 0 .4.1.6.3h0v2.2.1.5c-.1.3-.2.4-.5.4h0v.3h1.6v-.2h-.2zm7.7-3.8h-3.9v.3h.1c.4 0 .5.1.5.6v2.2c0 .5-.1.6-.5.6h-.1v.3h4l.2-1h-.4 0c-.2.3-.4.4-.6.5-.3.1-.4.2-.9.2s-.7-.1-.7-.6v-1.1h.6c.3 0 .4 0 .6.1s.3.2.4.5h.4v-1.3h-.5c0 .2-.1.2-.1.3-.1.2-.3.2-.8.2h-.6v-1.5h.8c.2 0 .4 0 .5.1.2.1.3.2.5.5h0 .4l.1-.9h0zm.9 0v.3h0c.4 0 .5.1.5.6v2.2c0 .5-.1.6-.5.6h0v.3h2.1c.6 0 .8 0 1.1-.1.9-.2 1.5-1 1.5-2 0-.7-.3-1.3-.9-1.7-.2-.1-.3-.2-.5-.2-.3-.1-.5-.1-.9-.1l-2.4.1h0zm1.6.3h.2.2c.6 0 .9.1 1.2.4.2.2.3.4.4.6.1.3.1.6.1.9 0 .8-.3 1.3-.7 1.5-.1.1-.4.1-.6.1-.5 0-.6-.2-.6-.7l-.2-2.8h0 0zm3.7-.3v.3h.1c.4 0 .5.1.5.6v2.2c0 .5-.1.6-.5.6h0v.3h2.4c.6 0 .9 0 1.2-.2s.6-.5.6-.9c0-.5-.4-.9-1.2-1h0c.3-.1.4-.1.6-.2.3-.2.5-.4.5-.7 0-.6-.6-.9-1.5-.9l-2.7-.1h0zm1.6 1.8v-1.5h.5c.3 0 .4 0 .6.1.2.2.3.4.3.7 0 .2-.1.4-.2.5-.2.1-.3.2-.6.2h-.6 0zm0 .3h.6c.6 0 .9.4.9.9s-.3.8-.9.8c-.4 0-.6-.2-.6-.7v-1h0zm5.6.4l.3.7v.1.2c0 .2-.2.3-.4.3v.3h2v-.3c-.3 0-.4-.1-.6-.6l-1.3-3.2h-1.1l.2.3-1.1 2.8c-.2.5-.3.6-.7.7v.3h1.4v-.3c-.3 0-.4-.1-.4-.4 0-.1 0-.2.1-.4l.2-.5h1.4 0 0zm-.1-.3h-1.1l.5-1.5.6 1.5zm4 1.6h0c-.3 0-.4-.1-.5-.2s-.2-.4-.2-.9v-1.8h0l2.8 3.2h.4v-.2-.3-.2-.5-1.9h0c0-.6.1-.7.5-.8h0v-.3h-1.5v.3c.3 0 .4.1.5.2s.1.4.2.9v1.1h0l-2.2-2.5h-1.5v.3c.2 0 .4.1.6.3h0v2.2.1.5c-.1.3-.2.4-.5.4h0v.3h1.6l-.2-.2h0 0zm6.1-3.5h0c.2 0 .3.1.3.2s-.2.4-.5.6l-.9.7v-.9c0-.5.1-.6.5-.6h0v-.3h-2.1v.3h.1c.4 0 .5.1.5.6v2.2c0 .5-.1.6-.5.6h-.1v.3h2.1v-.3h0c-.4 0-.5-.1-.5-.6v-1l1.2 1.4c.1.1.2.2.4.3s.4.1.4.1h.9v-.3c-.2 0-.4-.2-.7-.5l-1.5-1.7 1-.8c.4-.4.5-.4.9-.5v-.3h-1.6v.5h.1 0zm-19.6-6.9c0-1.1.4-2.2 1.2-2.9.8-.8 1.8-1.2 2.9-1.2s2.2.4 2.9 1.2c.8.8 1.2 1.8 1.2 2.9s-.4 2.2-1.2 2.9c-.8.8-1.8 1.2-2.9 1.2s-2.2-.4-2.9-1.2c-.8-.7-1.2-1.8-1.2-2.9zm-.6 0c0 1.2.5 2.4 1.4 3.3s2.1 1.4 3.3 1.4c1.3 0 2.4-.5 3.3-1.4s1.4-2.1 1.4-3.3c0-1.3-.5-2.4-1.4-3.3s-2.1-1.4-3.3-1.4c-1.3 0-2.4.5-3.3 1.4-.9.8-1.4 2-1.4 3.3zm4.8-2l1.4-1 1.5 1V71l-1.4.9-1.4-.9-1.5 1-1.6-1v-3.9l1.5-1 1.5 1.1h0zm-1.5-.5l-1.2.8 5.2 3.4v-3.4l-1.1-.7v1.9l-2.9-2h0zm1.2 4.2l-1.1-.7v1.5l1.1-.8h0z" class="f j"/><path d="M47.4,59.4h42.7v25.3H47.4V59.4z" fill="#e2231a"/><path d="M89.8 59.7v24.7H47.7V59.7h42.1m.6-.5H47.1v25.9h43.4l-.1-25.9h0z" class="g"/><path d="M63.8 76.2h-2c-.2 0-.3-.2-.4-.4L59.5 72l-1.9 4.2-1.9-4.2c-.3.5-.5 1-.7 1.4l-1.1 2.4c-.1.3-.3.4-.7.4h-1.8l4.3-8.6 1.9 3.9 1.8-3.9 4.4 8.6zm3.4.3c-2.4 0-4.3-2-4.3-4.5s1.9-4.5 4.3-4.5 4.3 2 4.3 4.5c0 2.4-1.9 4.5-4.3 4.5zm2.4-4.5c0-1.3-1-2.4-2.4-2.4-1.3 0-2.4 1.1-2.4 2.4s1.1 2.4 2.4 2.4 2.4-1.1 2.4-2.4zm7.7 4.2l4.3-8.6 4.3 8.6h-2.1c-.2 0-.3-.3-.4-.5-.1-.4-.4-.5-.7-.5h-2.1c-.4 0-.7.1-.8.5s-.4.6-.8.5h-1.7zm4.9-2.9c-.2-.5-.4-.8-.6-1.3-.2.5-.4.9-.6 1.3h.5.7zm-3.6-1.5l-6.8 4.5v-2.2c0-.1.2-.3.3-.4l3-1.9-2.9-1.9c-.3-.2-.4-.4-.4-.8v-1.8l6.8 4.5zm-6.1 4.3l2.7-1.7c.4-.2.9-.1 1.3-.1.1 0 .2.2.2.3v1.2c0 .1-.2.3-.3.3h-3.9c.1.1 0 0 0 0z" class="f"/><g opacity=".85" class="f"><path d="M58.5 79.2c0-.6.5-1.1 1.2-1.1s1.1.5 1.1 1.1a1.11 1.11 0 0 1-1.1 1.1c-.7 0-1.2-.5-1.2-1.1zm2.1 0c0-.5-.4-.9-.9-.9s-.9.4-.9.9.4.9.9.9.9-.4.9-.9zm3.4-1.1l-1 2.2h-.2l-1-2.2h.2l.8 1.9.8-1.9h.4z"/><path d="M65.4 79.3v1h-.2V80c-.1.2-.3.3-.6.3-.4 0-.6-.2-.6-.5s.2-.5.6-.5h.5v-.1c0-.3-.2-.4-.5-.4-.2 0-.4.1-.5.2l-.1-.2c.2-.1.4-.2.7-.2a.68.68 0 0 1 .7.7zm-.3.5v-.3h-.5c-.3 0-.4.1-.4.3s.2.3.4.3c.3 0 .5-.1.5-.3zM66 78h.2v2.3H66V78zm.6 1.5c0-.5.4-.8.8-.8.5 0 .8.3.8.8s-.4.8-.8.8-.8-.3-.8-.8zm1.5 0c0-.4-.3-.6-.6-.6a.65.65 0 0 0-.6.6.65.65 0 0 0 .6.6c.3 0 .6-.2.6-.6zm1.5-.9v.2h-.1c-.3 0-.6.2-.6.6v.8h-.2v-1.6h.2v.4c.2-.2.4-.4.7-.4zm2.7.9h-1.4a.65.65 0 0 0 .6.6c.2 0 .4-.1.5-.2l.1.1c-.1.2-.4.3-.6.3-.5 0-.9-.4-.9-.8 0-.5.3-.8.8-.8.5-.1.9.3.9.8h0zm-1.4-.1h1.2c0-.3-.3-.5-.6-.5-.4-.1-.6.2-.6.5zm3.5.8c-.1.1-.2.1-.3.1a.47.47 0 0 1-.5-.5v-1h-.3v-.2h.3v-.4h.2v.4h.5v.2h-.5v1c0 .2.1.3.3.3.1 0 .2 0 .2-.1l.1.2zm1.8-.7h-1.4a.65.65 0 0 0 .6.6c.2 0 .4-.1.5-.2l.1.1c-.1.2-.4.3-.6.3-.5 0-.9-.4-.9-.8 0-.5.3-.8.8-.8.5-.1.9.3.9.8h0zm-1.4-.1H76c0-.3-.3-.5-.6-.5-.3-.1-.6.2-.6.5zm3.3-.7v1.6h-.2V80c-.1.2-.3.3-.6.3-.4 0-.7-.2-.7-.7v-1h.2v.9a.47.47 0 0 0 .5.5c.3 0 .6-.2.6-.6v-.9h.2v.2z"/></g><linearGradient id="A" gradientUnits="userSpaceOnUse" x1=".2" y1="43.05" x2="42.9" y2="43.05"><stop offset="0" stop-color="#139ad6"/><stop offset=".172" stop-color="#1592cf"/><stop offset=".431" stop-color="#197ebc"/><stop offset=".745" stop-color="#1f5c9e"/><stop offset="1" stop-color="#263b80"/></linearGradient><path d="M.2 30.4h42.7v25.3H.2V30.4z" fill="url(#A)"/><path d="M42.7 30.6v24.7H.5V30.6h42.2m.5-.5H0V56h43.4V30.1h-.2z" class="g"/><g class="f"><path d="M32 40.7h-2.1c-.1 0-.2.1-.3.2l-.8 5.3c0 .1.1.1.1.1H30c.1 0 .1-.1.1-.1l.2-1.5c0-.1.1-.2.3-.2h.7c1.4 0 2.2-.7 2.4-2 .1-.5 0-1-.2-1.3-.2-.4-.8-.5-1.5-.5m.3 2c-.1.7-.7.7-1.2.7h-.4l.2-1.4c0-.1.1-.1.1-.1h.1c.4 0 .7 0 .9.2.3.1.3.2.3.6m-15.1-2h-2.1c-.1 0-.2.1-.3.2l-.8 5.3c0 .1.1.1.1.1h1c.1 0 .2-.1.3-.2l.2-1.5c0-.1.1-.2.3-.2h.7c1.4 0 2.2-.7 2.4-2 .1-.5 0-1-.2-1.3-.5-.3-.9-.4-1.6-.4m.2 2c-.1.7-.7.7-1.2.7h-.3l.2-1.4c0-.1.1-.1.1-.1h.1c.4 0 .7 0 .9.2.2.1.3.2.2.6m6-.1h-1c-.1 0-.1.1-.1.1l-.1.3-.1-.1c-.2-.3-.7-.4-1.2-.4-1.1 0-2.1.8-2.2 2-.1.6.1 1.2.4 1.5.3.4.7.5 1.3.5.9 0 1.4-.5 1.4-.5l-.1.3c0 .1.1.1.1.1h.9c.1 0 .2-.1.3-.2l.5-3.4c.1-.1 0-.2-.1-.2m-1.4 2c-.1.5-.5 1-1.2 1-.3 0-.5-.1-.7-.2-.1-.1-.1-.4-.1-.7.1-.5.5-1 1.1-1 .3 0 .5.1.7.2.1.1.2.4.2.7m16.2-2h-1c-.1 0-.1.1-.1.1l-.1.3-.1-.1c-.2-.3-.7-.4-1.2-.4-1.1 0-2.1.8-2.2 2-.1.6.1 1.2.4 1.5.3.4.7.5 1.3.5.9 0 1.4-.5 1.4-.5l-.1.3c0 .1.1.1.1.1h.9c.1 0 .2-.1.3-.2l.4-3.6c.2.1.1 0 0 0m-1.4 2c-.1.5-.5 1-1.2 1-.3 0-.5-.1-.7-.2-.1-.1-.1-.4-.1-.7.1-.5.5-1 1.1-1 .3 0 .5.1.7.2s.3.4.2.7m-8.1-2h-1c-.1 0-.1.1-.2.1l-1.3 2.1-.6-2c-.1-.1-.1-.1-.3-.1h-1c-.1 0-.1.1-.1.2l1.1 3.2-1 1.5c-.1.1 0 .3.1.3h1c.1 0 .1-.1.2-.1l3.3-4.8c.1-.2-.1-.4-.2-.4m10.7-1.8l-.8 5.5c0 .1.1.1.1.1h.9c.1 0 .2-.1.3-.2l.8-5.3c0-.1-.1-.1-.1-.1h-1c-.1-.1-.2-.1-.2 0m-28.7-2c-.4-.5-1.2-.7-2.3-.7h-3c-.1 0-.4.1-.4.4l-1.2 7.9c0 .2.1.3.2.3h1.9l.5-3v.1c.1-.1.2-.4.4-.4h.9c1.8 0 3.1-.7 3.5-2.7v-.1c-.1 0-.1 0 0 0 0-.8-.1-1.2-.5-1.8"/><path d="M11.1 40.6h0c-.4 2.2-1.8 2.8-3.5 2.8h-.9c-.1 0-.4.1-.4.4l-.6 3.7c0 .1.1.2.2.2h1.6c.1 0 .4-.1.4-.3v-.1l.3-1.9v-.1c0-.1.1-.3.4-.3h.2c1.5 0 2.7-.6 3-2.5.1-.7.1-1.4-.3-1.9-.1.2-.2.1-.4 0" opacity=".6" class="i"/></g><path d="M10.7 40.4c-.1 0-.1-.1-.1-.1s-.1 0-.1-.1c-.2-.1-.5-.1-.8-.1H7.3c-.1 0-.1 0-.1.1-.1.1-.1.1-.1.3l-.8 3.2v.1c.1-.1.2-.4.4-.4h.9c1.8 0 3.1-.7 3.5-2.7 0-.1 0-.1.1-.1-.1-.1-.1-.1-.3-.1-.1-.1-.1-.1-.2-.1" opacity=".86" fill="#d9f0f9" class="i"/><g fill="#838384"><path d="M22.7 19.6c-.4.2-1.2.4-2.3.4-2.9 0-4.7-2-4.7-5.1 0-3.5 2.2-5.3 4.9-5.3 1 0 1.8.2 2.1.4l-.4 1.4c-.4-.2-.9-.3-1.7-.3-1.8 0-3.1 1.2-3.1 3.7 0 2.4 1.2 3.7 3.1 3.7.6 0 1.3-.1 1.7-.3 0 0 .4 1.4.4 1.4zM24 9.3h1.8v4.2c.2-.3.5-.6.8-.8s.7-.3 1.2-.3c1.2 0 2.3.9 2.3 3.1v4.4h-1.8v-4.2c0-1-.3-1.8-1.2-1.8-.6 0-1.1.4-1.3 1-.1.2-.1.4-.1.6v4.4h-1.8L24 9.3h0zm9.3 7.4c0 1.4 1 2 2.1 2 .8 0 1.3-.1 1.8-.3l.3 1.2c-.6.3-1.4.4-2.3.4-2.2 0-3.5-1.4-3.5-3.7 0-2.1 1.2-3.9 3.3-3.9s2.9 1.8 2.9 3.5c0 .4 0 .6-.1.8h-4.5zm2.8-1.2c0-.8-.3-1.8-1.3-1.8s-1.4 1-1.5 1.8h2.8zm8 4.2c-.3.2-1 .3-1.8.3-2.1 0-3.5-1.4-3.5-3.7 0-2.2 1.4-3.9 3.8-3.9.6 0 1.2.1 1.6.3l-.3 1.4c-.3-.1-.6-.2-1.2-.2-1.3 0-2 1.1-2 2.4 0 1.5.9 2.4 2 2.4.5 0 .9-.1 1.2-.3 0 0 .2 1.3.2 1.3zm3-3.9c.2-.3.4-.6.5-.9l1.6-2.3h2.1l-2.4 3 2.8 4.3h-2.2l-1.9-3.2-.5.7v2.5h-1.8V9.3h1.8v6.5z"/><use xlink:href="#D"/><path d="M66.1 17.7l.1 2.2h-1.5l-.2-1c-.3.5-1 1.2-2.1 1.2-1.3 0-2.3-.9-2.3-3.1v-4.4h1.8v4.1c0 1.2.3 1.9 1.2 1.9.7 0 1.1-.5 1.2-.9.1-.2.1-.4.1-.6v-4.5h1.8l-.1 5.1h0zm3.9-7.2v2.1h1.7v1.3H70v3.4c0 .9.3 1.3.9 1.3.3 0 .5 0 .7-.1v1.4c-.3.1-.7.2-1.3.2s-1.2-.2-1.5-.6c-.4-.4-.6-1-.6-2v-3.6h-1v-1.3h1v-1.7l1.8-.4z"/></g><path d="M75.8 17.6c.5.3 1.4.6 2.3.6 1 0 1.5-.4 1.5-1.1s-.5-1-1.6-1.5c-1.6-.7-2.5-1.7-2.5-3 0-1.7 1.3-3 3.6-3 1 0 1.8.2 2.3.5l-.4 1.8c-.4-.2-1-.4-1.9-.4s-1.4.5-1.4 1c0 .6.5.9 1.7 1.5 1.7.7 2.4 1.7 2.4 3 0 1.7-1.3 3.1-3.9 3.1-1 0-2.1-.3-2.6-.6l.5-1.9zM88 15.5h-3.3V18h3.7v1.9h-5.9V9.8h5.7v1.8h-3.5v2.2H88v1.7zm8.8 4c-.6.2-1.8.5-3 .5-1.6 0-2.8-.4-3.7-1.2-.9-.9-1.4-2.2-1.4-3.8 0-3.5 2.4-5.3 5.3-5.3 1.1 0 2 .2 2.5.4l-.4 1.8c-.5-.2-1.1-.4-2-.4-1.7 0-3.1 1-3.1 3.4 0 2.2 1.2 3.3 2.8 3.3.4 0 .7 0 .9-.1v-2.2h-1.4v-1.7h3.5c0 0 0 5.3 0 5.3zm3.2-9.7v6c0 1.7.6 2.4 1.6 2.4s1.6-.7 1.6-2.4v-6h2.2v5.8c0 3-1.4 4.4-3.8 4.4s-3.7-1.4-3.7-4.4V9.8h2.1zm6.5.1l2.8-.2c1.4 0 2.4.2 3.1.8.6.5.9 1.2.9 2.1 0 1.2-.8 2.1-1.7 2.5.7.3 1.1.9 1.3 1.9l.8 2.8h-2.3c-.1-.3-.4-1.2-.6-2.4-.2-1.3-.6-1.6-1.5-1.6h-.6v4h-2.2V9.9zm2.2 4.4h.7c1 0 1.7-.6 1.7-1.5s-.5-1.4-1.5-1.4c-.4 0-.7 0-.9.1v2.8zm13.7.4c0 3.5-1.8 5.3-4.5 5.3-2.8 0-4.3-2.3-4.3-5.2s1.7-5.2 4.4-5.2c3 0 4.4 2.4 4.4 5.1zm-6.5.1c0 2.1.8 3.4 2.1 3.4s2-1.5 2-3.5c0-1.8-.7-3.4-2.1-3.4-1.2.1-2 1.5-2 3.5z" fill="#4caf50"/><g fill="#838384"><path d="M132.9 19.5c-.6.2-1.7.5-2.9.5-1.5 0-2.7-.4-3.5-1.2-.9-.8-1.4-2.2-1.4-3.8 0-3.4 2.2-5.2 5.2-5.2 1.1 0 1.9.2 2.3.4l-.4 1.5c-.5-.2-1.1-.4-2-.4-1.9 0-3.3 1.2-3.3 3.7 0 2.4 1.3 3.7 3.1 3.7.5 0 .9-.1 1.1-.2v-2.6h-1.6v-1.4h3.3l.1 5h0zm5.6.4l-.1-.8c-.4.6-1.1.9-2 .9-1.4 0-2.2-1-2.2-2.2 0-1.9 1.6-2.7 4-2.7V15c0-.6-.2-1.3-1.4-1.3-.7 0-1.3.2-1.8.5l-.3-1.2c.5-.3 1.4-.6 2.5-.6 2.2 0 2.8 1.4 2.8 3v2.7c0 .6 0 1.3.1 1.7l-1.6.1h0zm-.2-3.6c-1.1 0-2.3.2-2.3 1.4 0 .7.5 1.1 1 1.1.6 0 1.1-.4 1.3-1v-1.5zm3.5-1.5l-.1-2.3h1.5l.1 1.3c.3-.9 1.1-1.5 1.8-1.5h.4V14h-.5c-.8 0-1.4.5-1.5 1.4 0 .2-.1.4-.1.6v3.9h-1.8v-5.1h.2zm8.7 5.1l-.1-.8c-.4.6-1.1.9-2 .9-1.4 0-2.2-1-2.2-2.2 0-1.9 1.6-2.7 4-2.7V15c0-.6-.2-1.3-1.4-1.3-.7 0-1.3.2-1.8.5l-.3-1.2c.5-.3 1.4-.6 2.5-.6 2.2 0 2.8 1.4 2.8 3v2.7c0 .6 0 1.3.1 1.7l-1.6.1h0zm-.3-3.6c-1.1 0-2.3.2-2.3 1.4 0 .7.5 1.1 1 1.1.6 0 1.1-.4 1.3-1v-1.5zm3.6-1.6l-.1-2.1h1.5l.1 1c.3-.6 1.1-1.2 2.1-1.2 1.3 0 2.4.9 2.4 3v4.5H158v-4.3c0-1-.3-1.7-1.2-1.7-.6 0-1.1.5-1.3 1-.1.2-.1.4-.1.6v4.4h-1.8v-5.2h.2zm9.9-4.2v2.1h1.7v1.3h-1.7v3.4c0 .9.3 1.3.9 1.3.3 0 .5 0 .7-.1v1.4c-.3.1-.7.2-1.3.2s-1.2-.2-1.5-.6c-.4-.4-.6-1-.6-2v-3.6h-1v-1.3h1v-1.7l1.8-.4zm4.8.1a1 1 0 1 1-2 0 1 1 0 1 1 2 0zm-1.9 9.3v-7.3h1.8v7.3h-1.8zm9.8-10.6v8.5c0 .7 0 1.5.1 2h-1.6l-.1-1.1c-.4.7-1.2 1.2-2.1 1.2-1.6 0-2.8-1.5-2.8-3.7 0-2.5 1.4-3.9 3-3.9.9 0 1.5.4 1.8.9v-4h1.7v.1zm-1.7 6.2V15c-.1-.7-.6-1.2-1.4-1.2-1.1 0-1.6 1.1-1.6 2.4 0 1.4.6 2.3 1.6 2.3.6 0 1.2-.4 1.4-1.2 0-.2.1-.3.1-.5v-1.3h-.1z"/><use xlink:href="#D" x="126"/></g><path d="M10.5 21.5H2.3c-.9 0-1.7-.8-1.7-1.7v-5.4c0-.9.8-1.7 1.7-1.7h8.2c.9 0 1.7.8 1.7 1.7v5.4c0 .9-.8 1.7-1.7 1.7z" fill="#e0be14"/><path d="M10.5 12.6H6.4v8.8h4.1c.9 0 1.7-.8 1.7-1.7v-5.4c0-.9-.8-1.7-1.7-1.7z" fill="#ceaa15"/><g fill="#4c4c4f"><path d="M6.4 18.1c-.3 0-.5-.3-.5-.6v-1.2c0-.3.2-.6.5-.6s.5.3.5.6v1.2c0 .4-.2.6-.5.6z"/><circle cx="6.4" cy="15.6" r=".9"/></g><path d="M2.3 12.6h1v-1.8c0-1.4 1.4-2.6 3-2.6s3 1.2 3 2.6v1.8h1.1v-1.8c0-2-1.9-3.7-4.1-3.7s-4.1 1.7-4.1 3.7c0 0 .1 1.8.1 1.8z" fill="#546a79"/><defs ><path id="C" d="M21.6 74.9c0-.3.2-.4.5-.4.2 0 .4 0 .4.3s-.4.3-.8.3c-.4.1-.8.2-.8.8 0 .5.4.7.8.7.3 0 .6-.1.8-.3v.2h.7c-.1-.1-.1-.3-.1-.6v-1.3c0-.6-.6-.7-1.1-.7-.6 0-1.1.2-1.2.8h.8zm.9.8c0 .1 0 .6-.6.6-.2 0-.4-.1-.4-.3s.2-.3.4-.4c.2 0 .5 0 .6-.1"/><path id="D" d="M58.6 16.2c0 2.8-1.8 3.9-3.4 3.9-1.9 0-3.3-1.4-3.3-3.8 0-2.5 1.5-3.8 3.4-3.8 2-.1 3.3 1.4 3.3 3.7zm-4.9 0c0 1.4.6 2.5 1.6 2.5s1.5-1.1 1.5-2.5c0-1.1-.4-2.5-1.5-2.5-1.2 0-1.6 1.4-1.6 2.5z"/></defs></svg>