<svg xmlns="http://www.w3.org/2000/svg" viewBox="0 0 60 60"><style><![CDATA[.G{fill:#4caf50}.H{fill:#44484e}.I{stroke-miterlimit:10}]]></style><g fill="#1f2835"><circle cx="30" cy="53.5" r="4" stroke="#1f2835" stroke-width="2"/><g class="I"><path d="M55.4 39.5H4.6c-2 0-3.6-1.6-3.6-3.6V24.1c0-2 1.6-3.6 3.6-3.6h50.8c2 0 3.6 1.6 3.6 3.6v11.8c0 2-1.6 3.6-3.6 3.6z" stroke="#fff" stroke-width=".5"/><g stroke="#1f2835" stroke-width="2"><path d="M1 53.5h25m8 0h25" stroke-linecap="round"/><path d="M30 49.5V39.2"/></g></g></g><g class="H"><circle cx="50" cy="28.5" r="1"/><circle cx="46" cy="28.5" r="1"/></g><g class="G"><circle cx="52" cy="31.5" r="1"/><circle cx="48" cy="31.5" r="1"/><circle cx="42" cy="28.5" r="1"/></g><circle cx="44" cy="31.5" r="1" class="H"/><circle cx="38" cy="28.5" r="1" class="G"/><g class="H"><circle cx="40" cy="31.5" r="1"/><circle cx="34" cy="28.5" r="1"/></g><g class="G"><circle cx="36" cy="31.5" r="1"/><circle cx="10.5" cy="30" r="3.3"/></g><path d="M10.5 27c1.7 0 3 1.3 3 3s-1.3 3-3 3-3-1.3-3-3 1.3-3 3-3m0-.5C8.6 26.5 7 28.1 7 30s1.6 3.5 3.5 3.5S14 31.9 14 30s-1.6-3.5-3.5-3.5z" fill="#fff"/><path d="M55.4 20.5H4.6c-2 0-3.6-1.6-3.6-3.6V5.1c0-2 1.6-3.6 3.6-3.6h50.8c2 0 3.6 1.6 3.6 3.6v11.8c0 2-1.6 3.6-3.6 3.6z" fill="#1f2835" stroke="#fff" stroke-width=".5" class="I"/><circle cx="50" cy="9.5" r="1" class="G"/><circle cx="46" cy="9.5" r="1" class="H"/><g class="G"><circle cx="52" cy="12.5" r="1"/><circle cx="48" cy="12.5" r="1"/></g><g class="H"><circle cx="42" cy="9.5" r="1"/><circle cx="44" cy="12.5" r="1"/></g><g class="G"><circle cx="38" cy="9.5" r="1"/><circle cx="40" cy="12.5" r="1"/><circle cx="34" cy="9.5" r="1"/></g><circle cx="36" cy="12.5" r="1" class="H"/><circle cx="10.5" cy="11" r="3.3" class="G"/><path d="M10.5 8c1.7 0 3 1.3 3 3s-1.3 3-3 3-3-1.3-3-3 1.3-3 3-3m0-.5C8.6 7.5 7 9.1 7 11s1.6 3.5 3.5 3.5S14 12.9 14 11s-1.6-3.5-3.5-3.5z" fill="#fff"/><circle cx="30" cy="53.5" r="2.5" class="G"/><path d="M30 51.5c1.1 0 2 .9 2 2s-.9 2-2 2-2-.9-2-2 .9-2 2-2m0-1c-1.7 0-3 1.3-3 3s1.3 3 3 3 3-1.3 3-3-1.3-3-3-3z" fill="#fff"/></svg>